HIERARCHY
ROOT hip
{
	OFFSET 0.000000 0.000000 0.000000 
	CHANNELS 6 Xposition Yposition Zposition Xrotation Zrotation Yrotation
	JOINT abdomen
	{
		OFFSET 0.000000 3.402643 0.000000 
		CHANNELS 3 Xrotation Zrotation Yrotation
		JOINT chest
		{
			OFFSET 0.000000 8.438565 -0.680529 
			CHANNELS 3 Xrotation Zrotation Yrotation
			JOINT neck
			{
				OFFSET 0.000000 10.207942 -0.272212 
				CHANNELS 3 Xrotation Zrotation Yrotation
				JOINT head
				{
					OFFSET 0.000000 3.130431 0.000000 
					CHANNELS 3 Xrotation Zrotation Yrotation
					End Site
					{
						OFFSET 0.000000 3.130435 0.000000 
					}
				}
			}
			JOINT lCollar
			{
				OFFSET 3.470700 6.669187 -0.816635 
				CHANNELS 3 Yrotation Zrotation Xrotation
				JOINT lShldr
				{
					OFFSET 3.198488 0.000000 0.000000 
					CHANNELS 3 Zrotation Yrotation Xrotation
					JOINT lForeArm
					{
						OFFSET 10.139888 0.000000 0.000000 
						CHANNELS 3 Yrotation Zrotation Xrotation
						JOINT lHand
						{
							OFFSET 8.370511 0.000000 0.000000 
							CHANNELS 3 Zrotation Yrotation Xrotation
							End Site
							{
								OFFSET 4.083176 0.000000 0.000000 
							}
						}
					}
				}
			}
			JOINT rCollar
			{
				OFFSET -3.470700 6.669187 -0.816635 
				CHANNELS 3 Yrotation Zrotation Xrotation
				JOINT rShldr
				{
					OFFSET -3.198488 0.000000 0.000000 
					CHANNELS 3 Zrotation Yrotation Xrotation
					JOINT rForeArm
					{
						OFFSET -10.139888 0.000000 0.000000 
						CHANNELS 3 Yrotation Zrotation Xrotation
						JOINT rHand
						{
							OFFSET -8.370511 0.000000 0.000000 
							CHANNELS 3 Zrotation Yrotation Xrotation
							End Site
							{
								OFFSET -4.083176 0.000000 0.000000 
							}
						}
					}
				}
			}
		}
	}
	JOINT lThigh
	{
		OFFSET 5.308129 -1.633274 1.361059 
		CHANNELS 3 Xrotation Zrotation Yrotation
		JOINT lShin
		{
			OFFSET -2.041588 -20.007561 0.000000 
			CHANNELS 3 Xrotation Zrotation Yrotation
			JOINT lFoot
			{
				OFFSET 0.000000 -19.190928 -1.224953 
				CHANNELS 3 Xrotation Yrotation Zrotation
				End Site
				{
					OFFSET 0.000000 -2.449906 4.627600 
				}
			}
		}
	}
	JOINT rThigh
	{
		OFFSET -5.308129 -1.633274 1.361059 
		CHANNELS 3 Xrotation Zrotation Yrotation
		JOINT rShin
		{
			OFFSET 2.041588 -20.007561 0.000000 
			CHANNELS 3 Xrotation Zrotation Yrotation
			JOINT rFoot
			{
				OFFSET 0.000000 -19.190928 -1.224953 
				CHANNELS 3 Xrotation Yrotation Zrotation
				End Site
				{
					OFFSET 0.000000 -2.449906 4.627600 
				}
			}
		}
	}
}
MOTION
Frames: 18
Frame Time: 0.011111
6.102705 52.954323 -13.330442 -3.764498 0.957059 -12.052025 26.767450 -3.568038 0.719715 -21.592852 -0.555799 0.481990 -8.325899 -5.330370 -2.771909 9.351761 10.273091 -5.710763 2.424333 -4.683778 1.783845 -59.529743 -20.230244 25.833149 -86.321831 1.362995 30.487530 8.524705 12.647240 -57.112682 -2.738486 -1.140572 2.095526 37.958824 75.431351 31.109001 102.991638 -10.835923 41.843674 -8.534408 -12.637552 57.904160 1.492950 25.455433 5.127837 -0.119371 -5.950254 -0.672080 -4.997857 -0.518506 -3.249464 7.128502 -12.204810 17.007801 11.502835 5.966197 2.331545 -22.571632 -14.181619 -2.476750 
6.104210 52.955528 -13.335554 -3.735706 0.962540 -12.061277 26.737827 -3.542453 0.710946 -21.583088 -0.556268 0.472138 -8.255829 -5.247374 -2.772161 9.658287 10.177534 -5.674004 2.424333 -4.683778 1.783845 -59.569611 -20.259104 25.892916 -86.323555 1.364152 30.506998 8.524705 12.647240 -57.132214 -2.738486 -1.140572 2.095526 38.514919 75.247627 31.687925 102.981415 -10.833833 41.842693 -8.534408 -12.637552 57.923691 1.492951 25.455433 5.127836 -0.119368 -5.950254 -0.672080 -4.999143 -0.518835 -3.238999 7.059853 -12.195034 17.000860 11.540715 5.955976 2.343984 -22.573381 -14.220430 -2.489987 
6.103008 52.958534 -13.341268 -3.668745 1.005436 -12.071734 26.670477 -3.582998 0.684048 -21.592867 -0.546430 0.471843 -8.176219 -5.147400 -2.795491 9.944450 10.093045 -5.669550 2.424333 -4.683778 1.783845 -59.579002 -20.219934 26.000639 -86.331131 1.385680 30.544872 8.524705 12.647240 -57.102921 -2.738486 -1.140572 2.095526 39.060322 74.995323 32.217892 102.991638 -10.835923 41.843674 -8.534408 -12.637552 58.021343 1.492949 25.455437 5.127836 -0.119372 -5.950250 -0.672080 -4.990053 -0.515540 -3.237422 6.933643 -12.226540 17.018831 11.563535 5.954809 2.336893 -22.588213 -14.214793 -2.489605 
6.103008 52.959740 -13.341268 -3.591964 1.039432 -12.100809 26.543659 -3.600914 0.682969 -21.583103 -0.546511 0.471750 -8.076724 -5.035501 -2.812564 10.281172 9.999971 -5.640568 2.424333 -4.683778 1.783845 -59.588264 -20.171001 26.147423 -86.340401 1.398534 30.602858 8.524705 12.647240 -57.073624 -2.738486 -1.140572 2.095526 39.547909 74.693848 32.728050 103.055038 -10.846809 41.868610 -8.534408 -12.637552 58.294777 1.492948 25.455431 5.127837 -0.119370 -5.950253 -0.672080 -4.989363 -0.513492 -3.247163 6.796664 -12.252509 17.051441 11.603340 5.962970 2.341060 -22.598730 -14.193590 -2.489000 
6.100903 52.960945 -13.347583 -3.553515 1.056158 -12.120192 26.505434 -3.617395 0.674906 -21.602707 -0.497561 0.469982 -7.998529 -5.059797 -2.808050 10.646113 10.005602 -5.595026 2.424333 -4.683778 1.783845 -59.647270 -20.150820 26.237087 -86.345543 1.409784 30.631411 8.524705 12.647240 -57.132214 -2.738486 -1.140572 2.095526 39.953411 74.392059 33.188854 103.163307 -10.861883 41.927689 -8.534408 -12.637552 58.577984 1.492948 25.455431 5.127837 -0.119370 -5.950253 -0.672080 -4.999120 -0.522920 -3.230138 6.716754 -12.248054 17.113182 11.652928 5.972934 2.356029 -22.647856 -14.199496 -2.522543 
6.099999 52.963951 -13.346381 -3.553526 1.065905 -12.120795 26.496367 -3.617487 0.651474 -21.612522 -0.468600 0.459132 -7.891083 -5.128564 -2.781068 10.992441 10.131491 -5.516983 2.424333 -4.683778 1.783845 -59.696148 -20.111214 26.297157 -86.348763 1.419914 30.640738 8.524705 12.647240 -57.249397 -2.738486 -1.140572 2.095526 40.333385 74.109634 33.600925 103.256157 -10.881867 41.967518 -8.534408 -12.637552 58.861183 1.492952 25.455431 5.127835 -0.119368 -5.950253 -0.672080 -4.991088 -0.508562 -3.245138 6.709365 -12.264720 17.120159 11.653188 5.951061 2.344468 -22.632593 -14.255041 -2.520633 
6.099699 52.966953 -13.343676 -3.553679 1.086003 -12.112258 26.496838 -3.644532 0.640315 -21.622272 -0.478280 0.459606 -7.802485 -5.122191 -2.773102 11.399244 10.204339 -5.444315 2.424333 -4.683778 1.783845 -59.666523 -20.111544 26.423229 -86.351326 1.420958 30.660204 8.524705 12.647240 -57.268932 -2.738486 -1.140572 2.095526 40.733292 73.846695 33.964405 103.311134 -10.887328 41.992889 -8.534408 -12.637552 59.154160 1.492949 25.455433 5.127836 -0.119369 -5.950253 -0.672080 -4.987945 -0.517548 -3.248890 6.699767 -12.284101 17.098461 11.664676 5.949457 2.354933 -22.647251 -14.249699 -2.520481 
6.097595 52.968159 -13.350290 -3.534675 1.061462 -12.100338 26.506147 -3.617240 0.651534 -21.651598 -0.458530 0.459052 -7.743738 -5.101664 -2.792394 11.841339 10.213270 -5.437268 2.424333 -4.683778 1.783845 -59.677132 -20.170023 26.521172 -86.351753 1.421560 30.669947 8.524705 12.647240 -57.220100 -2.738486 -1.140572 2.095526 41.153496 73.593437 34.367210 103.395515 -10.902033 42.029476 -8.534408 -12.637552 59.349468 1.492950 25.455433 5.127837 -0.119369 -5.950253 -0.672080 -4.991599 -0.511107 -3.235621 6.688745 -12.242832 17.144777 11.684370 5.954449 2.347378 -22.655384 -14.171595 -2.492840 
6.099398 52.963951 -13.339163 -3.534793 1.052317 -12.089992 26.476135 -3.574128 0.649726 -21.583254 -0.449319 0.458117 -7.676152 -5.103930 -2.838373 12.181733 10.164207 -5.502808 2.424333 -4.683778 1.783845 -59.736992 -20.218187 26.575132 -86.352692 1.421468 30.669937 8.524705 12.647240 -57.210342 -2.738486 -1.140572 2.095526 41.582733 73.359612 34.877556 103.450760 -10.907825 42.064571 -8.534408 -12.637552 59.476421 1.492950 25.455433 5.127836 -0.119371 -5.950252 -0.672080 -4.991000 -0.512820 -3.236355 6.699538 -12.236161 17.093876 11.696068 5.952958 2.348114 -22.653122 -14.148852 -2.501266 
6.101503 52.960342 -13.327435 -3.553820 1.096355 -12.103114 26.438789 -3.609853 0.609045 -21.505224 -0.391767 0.445501 -7.587799 -5.098822 -2.840034 12.526787 10.139066 -5.465968 2.424333 -4.683778 1.783845 -59.816242 -20.236843 26.626312 -86.356422 1.432180 30.688757 8.524705 12.647240 -57.268932 -2.738486 -1.140572 2.095526 41.931362 73.193954 35.368275 103.481812 -10.914223 42.077225 -8.534408 -12.637552 59.691265 1.492950 25.455433 5.127836 -0.119373 -5.950253 -0.672080 -4.989586 -0.516886 -3.237999 6.697948 -12.287686 17.020180 11.727798 5.954123 2.370302 -22.660835 -14.132210 -2.503668 
6.099398 52.961845 -13.333751 -3.563455 1.162535 -12.107539 26.461361 -3.714101 0.577274 -21.456474 -0.342987 0.453096 -7.420289 -5.076881 -2.822319 12.786076 10.187288 -5.391299 2.424333 -4.683778 1.783845 -59.876110 -20.285006 26.676905 -86.360191 1.442881 30.707827 8.524705 12.647240 -57.405651 -2.738486 -1.140572 2.095526 42.279438 72.979393 35.790211 103.514519 -10.917690 42.089455 -8.534408 -12.637552 59.974464 1.492951 25.455433 5.127836 -0.119369 -5.950253 -0.672080 -4.990192 -0.511128 -3.246148 6.668404 -12.356200 17.033201 11.727033 5.956209 2.360751 -22.655489 -14.106623 -2.474041 
6.096992 52.964554 -13.343976 -3.554305 1.176145 -12.078706 26.501064 -3.720278 0.539417 -21.466259 -0.333519 0.443028 -7.342505 -5.140063 -2.813214 13.163888 10.344988 -5.316341 2.424333 -4.683778 1.783845 -60.042610 -20.175711 26.642839 -86.372711 1.465651 30.774916 8.524705 12.647240 -57.561905 -2.738486 -1.140572 2.095526 42.782669 72.647614 36.291729 103.556053 -10.926539 42.114666 -8.534408 -12.637552 60.169788 1.492948 25.455433 5.127837 -0.119369 -5.950253 -0.672080 -4.991644 -0.510981 -3.235564 6.641123 -12.362659 17.041805 11.738494 5.954629 2.372232 -22.670910 -14.092427 -2.490885 
6.092782 52.968456 -13.359013 -3.535330 1.074218 -12.052390 26.557108 -3.613366 0.585371 -21.505320 -0.333216 0.443256 -7.372220 -5.170376 -2.805965 13.737036 10.455364 -5.260555 2.424333 -4.683778 1.783845 -60.257706 -20.007250 26.551661 -86.392517 1.509016 30.870176 8.524705 12.647240 -57.659554 -2.738486 -1.140572 2.095526 43.294441 72.276611 36.832001 103.588791 -10.929920 42.126896 -8.534408 -12.637552 60.384624 1.492950 25.455433 5.127836 -0.119370 -5.950253 -0.672080 -4.998848 -0.519686 -3.239362 6.658945 -12.228998 17.107210 11.749002 5.954966 2.382867 -22.708338 -14.132772 -2.499848 
6.091279 52.970867 -13.364424 -3.535403 1.026085 -12.039634 26.575884 -3.572088 0.611874 -21.476057 -0.313926 0.442347 -7.480113 -5.076040 -2.865032 14.371310 10.249611 -5.335889 2.424333 -4.683778 1.783845 -60.366436 -20.015776 26.574421 -86.401909 1.530051 30.908077 8.524705 12.647240 -57.727913 -2.738486 -1.140572 2.095526 43.693031 71.983589 37.303425 103.650986 -10.942407 42.152187 -8.534408 -12.637552 60.667831 1.492952 25.455433 5.127836 -0.119369 -5.950252 -0.672080 -4.989459 -0.517229 -3.238155 6.689287 -12.194313 17.140375 11.705808 5.955394 2.349200 -22.734997 -14.099643 -2.506006 
6.094286 52.967857 -13.361117 -3.554798 1.052462 -12.022306 26.566595 -3.597929 0.620313 -21.388197 -0.294731 0.450915 -7.470224 -5.047824 -2.879661 14.831537 10.132694 -5.342569 2.424333 -4.683778 1.783845 -60.397449 -20.122852 26.682711 -86.402168 1.530663 30.917822 8.524705 12.647240 -57.727913 -2.738486 -1.140572 2.095526 44.034698 71.680725 37.706272 103.704575 -10.949996 42.177937 -8.534408 -12.637552 60.941265 1.492949 25.455433 5.127836 -0.119372 -5.950252 -0.672080 -4.988127 -0.521062 -3.239775 6.718864 -12.235250 17.063587 11.674629 5.952013 2.346291 -22.688776 -14.146469 -2.505842 
6.092481 52.964245 -13.362319 -3.574186 1.069104 -12.004208 26.596832 -3.616600 0.587023 -21.358919 -0.285552 0.440656 -7.420372 -5.122795 -2.796680 15.335239 10.389896 -5.116311 2.424333 -4.683778 1.783845 -60.359344 -20.230717 26.798712 -86.403397 1.530502 30.917807 8.524705 12.647240 -57.610725 -2.738486 -1.140572 2.095526 44.517609 71.289780 38.159313 103.737358 -10.953205 42.190151 -8.534408 -12.637552 61.224472 1.492953 25.455433 5.127835 -0.119370 -5.950254 -0.672080 -4.998226 -0.517450 -3.249014 6.738257 -12.234503 17.025444 11.684378 5.954435 2.347376 -22.664454 -14.213648 -2.520967 
6.087669 52.965157 -13.365026 -3.555230 1.093265 -11.995490 26.598160 -3.670121 0.561977 -21.310108 -0.276168 0.440072 -7.448529 -5.135864 -2.732571 15.859530 10.613166 -4.917062 2.424333 -4.683778 1.783845 -60.311363 -20.338696 26.894888 -86.407722 1.541698 30.946644 8.524705 12.647240 -57.493542 -2.738486 -1.140572 2.095526 45.064316 70.918129 38.651798 103.780663 -10.958813 42.214928 -8.534408 -12.637552 61.517437 1.492952 25.455433 5.127836 -0.119370 -5.950254 -0.672080 -4.987922 -0.517615 -3.248920 6.716805 -12.238345 17.015055 11.684378 5.954432 2.347376 -22.641068 -14.240977 -2.513263 
6.084362 52.967262 -13.366529 -3.545699 1.114788 -11.996511 26.589848 -3.730998 0.554586 -21.261297 -0.266783 0.439504 -7.359157 -5.043791 -2.744612 16.206747 10.602662 -4.862840 2.424333 -4.683778 1.783845 -60.301868 -20.368103 26.982485 -86.412811 1.551487 30.955715 8.524705 12.647240 -57.464241 -2.738486 -1.140572 2.095526 45.444450 70.575821 39.006416 103.854988 -10.969753 42.240734 -8.534408 -12.637552 61.917831 1.492951 25.455433 5.127836 -0.119369 -5.950253 -0.672080 -4.989472 -0.513202 -3.247028 6.678154 -12.277608 17.021799 11.673660 5.953956 2.346464 -22.598921 -14.253954 -2.515980 
